#!OML:ASF F:\VICON\USERDATA\INSTALL\rory3\rory3.ASF
:FULLY-SPECIFIED
:DEGREES
95
root -0.624519 15.8098 -17.3967 22.8672 -2.7641 -2.2989
lowerback -5.39566 -3.96346 2.07678
upperback -6.41097 -5.29656 3.63753
thorax -3.45711 -2.67221 2.47641
lowerneck -15.0615 2.59517 -2.27299
upperneck 13.9454 4.08307 -0.333043
head 6.69008 1.8122 0.671151
rclavicle -5.97845e-014 0
rhumerus -61.1771 15.1149 -84.8591
rradius 72.4721
rwrist 14.9042
rhand -27.5516 -43.9941
rfingers 7.12502
rthumb -0.952826 286.028
lclavicle -5.97845e-014 0
lhumerus -23.5105 -22.9039 89.2139
lradius 74.7348
lwrist 15.5164
lhand -37.4375 -49.2867
lfingers 7.12502
lthumb -10.4967 -19.5688
rfemur -71.8686 3.47482 23.3673
rtibia 58.3606
rfoot -11.5393 -7.72787
rtoes -24.9726
lfemur -8.05956 -0.879967 -23.5196
ltibia 49.6091
lfoot 5.62531 -2.53616
ltoes 2.26004
96
root -0.645441 15.8144 -16.9599 22.1686 -2.79497 -1.91848
lowerback -5.40492 -3.95487 2.00489
upperback -6.4431 -5.28434 3.48127
thorax -3.49357 -2.66593 2.35645
lowerneck -14.6097 2.60733 -2.10473
upperneck 14.3858 4.12697 -0.732474
head 6.76787 1.80165 0.51806
rclavicle -9.02482e-014 2.66371e-014
rhumerus -61.4853 15.3588 -84.9458
rradius 71.9398
rwrist 15.2599
rhand -28.6547 -42.7773
rfingers 7.12502
rthumb -2.01827 287.253
lclavicle -9.02482e-014 2.66371e-014
lhumerus -23.9887 -23.7974 89.9605
lradius 75.0981
lwrist 15.1596
lhand -37.3577 -48.1305
lfingers 7.12502
lthumb -10.4197 -18.4087
rfemur -70.5695 3.31364 23.4899
rtibia 59.7567
rfoot -12.4944 -8.30831
rtoes -18.5438
lfemur -8.31978 -0.353283 -23.6753
ltibia 52.5085
lfoot 6.60708 -2.10833
ltoes -1.76775
97
root -0.669505 15.7719 -16.5513 21.8326 -3.03559 -1.43931
lowerback -5.68361 -3.88576 1.71588
upperback -6.49405 -5.19517 3.32427
thorax -3.38154 -2.61344 2.3367
lowerneck -14.4989 2.61059 -2.01712
upperneck 14.9246 4.17717 -1.04802
head 6.93257 1.79313 0.411543
rclavicle 5.11871e-014 -5.96354e-015
rhumerus -61.4729 15.688 -85.0289
rradius 71.5036
rwrist 15.1329
rhand -26.0716 -44.3951
rfingers 7.12502
rthumb 0.476591 285.626
lclavicle 5.11871e-014 -5.96354e-015
lhumerus -24.372 -24.353 90.671
lradius 75.5164
lwrist 14.6146
lhand -36.6799 -47.2063
lfingers 7.12502
lthumb -9.76579 -17.4527
rfemur -69.5202 3.25179 23.4621
rtibia 61.7242
rfoot -13.3109 -9.53239
rtoes -15.0313
lfemur -9.30288 0.272711 -24.0696
ltibia 55.9179
lfoot 4.1145 -1.4909
ltoes -12.9877
98
root -0.696028 15.724 -16.1553 21.8753 -3.56008 -0.854889
lowerback -6.28309 -3.71563 1.17667
upperback -6.36297 -4.9751 3.13617
thorax -2.886 -2.48794 2.39418
lowerneck -15.1662 2.6276 -1.97191
upperneck 15.3529 4.25334 -1.22586
head 7.19234 1.80303 0.369416
rclavicle 9.93923e-015 1.27222e-014
rhumerus -60.8256 16.075 -85.0368
rradius 71.3198
rwrist 14.8647
rhand -26.1393 -44.1919
rfingers 7.12502
rthumb 0.411157 285.829
lclavicle 9.93923e-015 1.27222e-014
lhumerus -24.2045 -24.8502 91.1362
lradius 75.8951
lwrist 13.8842
lhand -36.1972 -45.4758
lfingers 7.12502
lthumb -9.30005 -15.7009
rfemur -69.045 3.44117 23.1026
rtibia 63.8693
rfoot -14.4809 -10.5384
rtoes -12.3874
lfemur -11.0671 1.1827 -24.6926
ltibia 59.6985
lfoot 3.18341 -0.959624
ltoes -11.6177
99
root -0.715749 15.6823 -15.7432 21.5231 -4.31498 -0.454279
lowerback -6.08059 -3.37534 0.683364
upperback -6.19379 -4.50293 3.02936
thorax -2.80619 -2.23462 2.58086
lowerneck -16.4194 2.56793 -1.86531
upperneck 15.9126 4.27318 -1.61496
head 7.60611 1.7603 0.251966
rclavicle 1.56543e-014 7.95139e-015
rhumerus -60.1002 16.4894 -84.8342
rradius 71.1957
rwrist 14.743
rhand -25.7105 -45.6133
rfingers 7.12502
rthumb 0.82536 284.409
lclavicle 1.56543e-014 7.95139e-015
lhumerus -24.1243 -25.2702 91.9136
lradius 76.1297
lwrist 12.9718
lhand -36.0632 -44.0456
lfingers 7.12502
lthumb -9.17081 -14.2651
rfemur -68.068 3.93608 22.6525
rtibia 65.9511
rfoot -16.513 -10.3908
rtoes -10.0309
lfemur -12.4727 2.29043 -25.2544
ltibia 63.609
lfoot -5.10595 3.1523
ltoes -36.0663
100
root -0.748258 15.6214 -15.372 22.0158 -4.46433 0.14336
lowerback -7.09083 -3.3069 0.150927
upperback -6.20091 -4.40999 2.80382
thorax -2.23537 -2.17783 2.58231
lowerneck -16.0424 2.50976 -1.43236
upperneck 15.3285 4.15765 -2.13531
head 7.3705 1.69599 -0.011199
rclavicle 4.14963e-014 -1.59028e-014
rhumerus -59.1848 16.808 -85.0457
rradius 70.6151
rwrist 15.2189
rhand -25.4786 -46.117
rfingers 7.12502
rthumb 1.04932 283.906
lclavicle 4.14963e-014 -1.59028e-014
lhumerus -24.2017 -25.4658 92.3901
lradius 76.2493
lwrist 12.5345
lhand -35.5382 -44.2494
lfingers 7.12502
lthumb -8.66422 -14.4472
rfemur -68.2688 4.17579 21.9565
rtibia 67.869
rfoot -18.7624 -10.5399
rtoes -8.15682
lfemur -15.2202 2.79277 -25.6515
ltibia 67.8111
lfoot -0.17364 2.02785
ltoes -7.55893
101
root -0.764084 15.5823 -14.9655 21.8837 -5.01252 0.480193
lowerback -7.14374 -3.1066 -0.214523
upperback -6.25688 -4.12522 2.80507
thorax -2.25167 -2.02202 2.80184
lowerneck -15.8413 2.50786 -1.39981
upperneck 15.0354 4.22811 -2.65857
head 7.25456 1.68992 -0.183845
rclavicle -3.19546e-014 -1.66979e-014
rhumerus -58.488 17.6325 -85.092
rradius 69.7686
rwrist 15.8073
rhand -25.7684 -45.8819
rfingers 7.12502
rthumb 0.769466 284.14
lclavicle -3.19546e-014 -1.66979e-014
lhumerus -24.6962 -25.1096 93.4897
lradius 76.2375
lwrist 12.6399
lhand -34.6556 -44.6836
lfingers 7.12502
lthumb -7.81233 -14.8479
rfemur -67.3938 4.78944 21.3143
rtibia 69.3842
rfoot -19.6775 -11.7712
rtoes -9.0137
lfemur -17.9015 3.5559 -26.0083
ltibia 72.0914
lfoot -1.75469 3.75612
ltoes -8.95849
102
root -0.783463 15.5171 -14.578 21.8521 -5.20384 0.618814
lowerback -7.20182 -3.01302 -0.377416
upperback -6.4453 -3.98884 2.94914
thorax -2.40296 -1.94295 3.0539
lowerneck -15.0417 2.56358 -1.64239
upperneck 14.5825 4.36264 -2.9001
head 6.97198 1.73728 -0.222059
rclavicle -3.97072e-014 -2.38542e-015
rhumerus -58.0148 18.7876 -85.3562
rradius 69.0137
rwrist 16.3375
rhand -26.2749 -46.1256
rfingers 7.12502
rthumb 0.280256 283.895
lclavicle -3.97072e-014 -2.38542e-015
lhumerus -25.5292 -24.4569 94.7526
lradius 76.2023
lwrist 12.9532
lhand -34.2431 -44.6975
lfingers 7.12502
lthumb -7.4142 -14.8474
rfemur -66.6436 5.27964 20.9886
rtibia 70.8044
rfoot -21.0408 -12.521
rtoes -7.44068
lfemur -20.615 4.41823 -26.0228
ltibia 76.4025
lfoot -3.90817 4.86424
ltoes -6.92856
103
root -0.800428 15.454 -14.1969 21.8501 -4.88582 0.348248
lowerback -6.87978 -2.89758 -0.0578452
upperback -6.51543 -3.84066 3.15397
thorax -2.6695 -1.87246 3.11697
lowerneck -15.2005 2.47631 -1.70602
upperneck 14.4918 4.30436 -3.15502
head 6.97529 1.68281 -0.298571
rclavicle -1.04859e-014 1.51076e-014
rhumerus -57.0852 19.7877 -85.6552
rradius 68.2097
rwrist 16.945
rhand -27.1665 -45.8329
rfingers 7.12502
rthumb -0.580855 284.188
lclavicle -1.04859e-014 1.51076e-014
lhumerus -26.0789 -24.0232 95.9037
lradius 76.0479
lwrist 13.1786
lhand -34.6003 -44.7166
lfingers 7.12502
lthumb -7.75902 -14.879
rfemur -65.563 5.39745 21.4492
rtibia 72.0061
rfoot -22.9486 -12.6604
rtoes -5.50845
lfemur -23.9544 4.90411 -25.3032
ltibia 80.7769
lfoot -7.474 6.15021
ltoes -10.1713
104
root -0.806237 15.3929 -13.8086 21.5932 -4.65056 -0.602298
lowerback -6.34981 -2.55401 1.1444
upperback -6.27334 -3.41947 3.34479
thorax -2.79093 -1.69934 2.68184
lowerneck -16.0509 2.33082 -1.48104
upperneck 14.5144 4.15469 -3.5658
head 7.14278 1.57448 -0.473647
rclavicle -4.74101e-014 2.06736e-014
rhumerus -55.6596 20.5957 -85.9937
rradius 67.3376
rwrist 17.4203
rhand -27.9331 -45.9068
rfingers 7.12502
rthumb -1.32127 284.118
lclavicle -4.74101e-014 2.06736e-014
lhumerus -26.2316 -23.8186 96.7866
lradius 75.6219
lwrist 13.8483
lhand -34.4641 -45.187
lfingers 7.12502
lthumb -7.62754 -15.3446
rfemur -63.8154 5.63356 22.7715
rtibia 72.9853
rfoot -24.7292 -13.452
rtoes -5.99627
lfemur -26.9843 5.55286 -23.9789
ltibia 85.0478
lfoot -9.58163 7.14001
ltoes -8.18846
105
root -0.805584 15.3289 -13.4092 21.1447 -4.88823 -2.08922
lowerback -6.25435 -2.11962 2.95202
upperback -5.88813 -2.91286 3.6136
thorax -2.54163 -1.5012 1.96382
lowerneck -15.6464 2.31998 -1.42298
upperneck 13.8736 4.13703 -3.86774
head 6.87387 1.56276 -0.589739
rclavicle 6.70898e-014 -4.6118e-014
rhumerus -54.4469 21.8853 -86.6345
rradius 66.7297
rwrist 17.7796
rhand -27.9069 -47.4813
rfingers 7.12502
rthumb -1.29599 282.543
lclavicle 6.70898e-014 -4.6118e-014
lhumerus -26.6282 -22.9011 97.425
lradius 75.2562
lwrist 15.1944
lhand -33.311 -46.2382
lfingers 7.12502
lthumb -6.51441 -16.3584
rfemur -61.5959 6.34631 24.5236
rtibia 73.593
rfoot -26.2526 -14.7047
rtoes -7.74036
lfemur -29.6966 6.6959 -22.2963
ltibia 89.0359
lfoot -12.5399 8.10994
ltoes -7.55184
106
root -0.831487 15.2412 -13.0696 21.7362 -4.11575 -3.5552
lowerback -5.37057 -1.92661 4.17941
upperback -6.51031 -2.59748 4.27439
thorax -3.72514 -1.3861 2.03831
lowerneck -15.6451 2.20802 -1.44675
upperneck 13.9479 4.04967 -4.18877
head 6.90469 1.48866 -0.698412
rclavicle -5.37713e-014 5.96354e-014
rhumerus -54.0151 23.1368 -87.1785
rradius 66.3183
rwrist 18.1011
rhand -28.4093 -48.0563
rfingers 7.12502
rthumb -1.78126 281.971
lclavicle -5.37713e-014 5.96354e-014
lhumerus -28.1396 -22.4679 98.9701
lradius 74.5372
lwrist 13.9138
lhand -35.1705 -45.0237
lfingers 7.12502
lthumb -8.30933 -15.2071
rfemur -60.7883 6.55854 26.5601
rtibia 74.0712
rfoot -27.5127 -16.0251
rtoes -8.47692
lfemur -34.4152 6.96906 -20.1751
ltibia 93.2921
lfoot -14.7007 8.40902
ltoes -4.36052
107
root -0.844473 15.1816 -12.6858 21.2948 -3.89895 -5.66683
lowerback -4.43208 -1.46903 6.36645
upperback -6.19588 -1.95744 4.70579
thorax -4.00518 -1.14499 1.31031
lowerneck -16.1585 2.06487 -1.39548
upperneck 13.7632 3.84671 -4.1705
head 6.92983 1.39315 -0.7181
rclavicle 8.34896e-015 3.18055e-015
rhumerus -52.5729 24.1663 -87.8675
rradius 65.9338
rwrist 17.6785
rhand -28.4772 -49.4071
rfingers 7.12502
rthumb -1.84679 280.621
lclavicle 8.34896e-015 3.18055e-015
lhumerus -28.9079 -22.2093 99.6265
lradius 74.236
lwrist 12.964
lhand -35.7811 -44.9594
lfingers 7.12502
lthumb -8.89859 -15.167
rfemur -58.1342 7.17678 29.1823
rtibia 74.0381
rfoot -28.8875 -17.362
rtoes -9.86079
lfemur -37.859 7.9622 -17.5517
ltibia 96.7786
lfoot -16.8922 9.14469
ltoes -6.5078
108
root -0.856799 15.1102 -12.308 20.8739 -3.56423 -7.67617
lowerback -3.59287 -1.13324 8.51605
upperback -5.8038 -1.45813 5.12043
thorax -4.12675 -0.968989 0.575539
lowerneck -16.633 1.90712 -1.47313
upperneck 13.3684 3.61901 -4.01443
head 6.87404 1.29726 -0.67649
rclavicle -3.29983e-014 9.54166e-015
rhumerus -50.921 25.249 -88.4792
rradius 65.2955
rwrist 18.4421
rhand -27.9986 -50.0852
rfingers 7.12502
rthumb -1.38459 279.94
lclavicle -3.29983e-014 9.54166e-015
lhumerus -29.5957 -21.7129 100.006
lradius 74.094
lwrist 11.7344
lhand -35.7724 -45.6636
lfingers 7.12502
lthumb -8.89013 -15.8709
rfemur -55.4484 7.53859 31.7255
rtibia 73.8812
rfoot -29.9498 -18.9401
rtoes -12.342
lfemur -41.3819 8.81955 -14.9714
ltibia 99.9095
lfoot -18.4232 9.69488
ltoes -6.53348
